<svg width="42" height="42" viewBox="0 0 42 42" fill="none" xmlns="http://www.w3.org/2000/svg">
<path d="M21.0005 25.6666C23.5778 25.6666 25.6671 23.5772 25.6671 20.9999C25.6671 18.4226 23.5778 16.3333 21.0005 16.3333C18.4231 16.3333 16.3338 18.4226 16.3338 20.9999C16.3338 23.5772 18.4231 25.6666 21.0005 25.6666Z" stroke="#000E24" stroke-width="1.5" stroke-miterlimit="10" stroke-linecap="round" stroke-linejoin="round"/>
<path d="M29.9687 19.3333C29.7443 19.3314 29.5265 19.2571 29.3477 19.1215C29.1689 18.9859 29.0387 18.7962 28.9763 18.5807C28.8181 18.0592 28.6087 17.5546 28.3513 17.0743C28.2424 16.8776 28.1999 16.6509 28.2303 16.4281C28.2606 16.2052 28.3621 15.9981 28.5197 15.8377C28.7126 15.644 28.821 15.3817 28.821 15.1083C28.821 14.8349 28.7126 14.5727 28.5197 14.379L27.622 13.4797C27.4283 13.2867 27.1661 13.1784 26.8927 13.1784C26.6193 13.1784 26.357 13.2867 26.1633 13.4797C26.0029 13.6372 25.7958 13.7387 25.5729 13.7691C25.3501 13.7994 25.1234 13.7569 24.9267 13.648C24.4464 13.3906 23.9418 13.1812 23.4203 13.023C23.2047 12.9609 23.0149 12.8308 22.8791 12.6521C22.7433 12.4735 22.6688 12.2557 22.6667 12.0313C22.6661 11.758 22.5573 11.496 22.364 11.3027C22.1707 11.1094 21.9087 11.0005 21.6353 11H20.3647C20.0913 11.0005 19.8293 11.1094 19.636 11.3027C19.4427 11.496 19.3339 11.758 19.3333 12.0313C19.3314 12.2557 19.2571 12.4735 19.1215 12.6523C18.9859 12.8311 18.7962 12.9613 18.5807 13.0237C18.0592 13.1819 17.5546 13.3913 17.0743 13.6487C16.8776 13.7576 16.6509 13.8001 16.4281 13.7697C16.2052 13.7394 15.9981 13.6379 15.8377 13.4803C15.644 13.2874 15.3817 13.179 15.1083 13.179C14.8349 13.179 14.5727 13.2874 14.379 13.4803L13.4807 14.3803C13.2877 14.574 13.1794 14.8363 13.1794 15.1097C13.1794 15.3831 13.2877 15.6453 13.4807 15.839C13.6382 15.9995 13.7397 16.2066 13.7701 16.4294C13.8004 16.6522 13.7579 16.8789 13.649 17.0757C13.3916 17.556 13.1822 18.0605 13.024 18.582C12.9614 18.7974 12.831 18.9868 12.6522 19.1221C12.4733 19.2575 12.2556 19.3316 12.0313 19.3333C11.758 19.3339 11.496 19.4427 11.3027 19.636C11.1094 19.8293 11.0005 20.0913 11 20.3647V21.635C11.0004 21.9084 11.1092 22.1705 11.3025 22.3639C11.4958 22.5573 11.7579 22.6661 12.0313 22.6667C12.2557 22.6686 12.4735 22.7429 12.6523 22.8785C12.8311 23.0141 12.9613 23.2038 13.0237 23.4193C13.1819 23.9408 13.3913 24.4454 13.6487 24.9257C13.7576 25.1224 13.8001 25.3491 13.7697 25.5719C13.7394 25.7948 13.6379 26.0019 13.4803 26.1623C13.2874 26.356 13.179 26.6183 13.179 26.8917C13.179 27.1651 13.2874 27.4273 13.4803 27.621L14.3803 28.521C14.574 28.714 14.8363 28.8223 15.1097 28.8223C15.3831 28.8223 15.6453 28.714 15.839 28.521C15.9995 28.3634 16.2066 28.2619 16.4294 28.2316C16.6522 28.2013 16.8789 28.2437 17.0757 28.3527C17.556 28.6101 18.0605 28.8194 18.582 28.9777C18.7971 29.0402 18.9863 29.1703 19.1217 29.3488C19.257 29.5273 19.3312 29.7447 19.3333 29.9687C19.3339 30.242 19.4427 30.504 19.636 30.6973C19.8293 30.8906 20.0913 30.9995 20.3647 31H21.635C21.9084 30.9996 22.1705 30.8908 22.3639 30.6975C22.5573 30.5042 22.6661 30.2421 22.6667 29.9687C22.6686 29.7443 22.7429 29.5265 22.8785 29.3477C23.0141 29.1689 23.2038 29.0387 23.4193 28.9763C23.9408 28.8181 24.4454 28.6087 24.9257 28.3513C25.1224 28.2424 25.3491 28.1999 25.5719 28.2303C25.7948 28.2606 26.0019 28.3621 26.1623 28.5197C26.356 28.7126 26.6183 28.821 26.8917 28.821C27.1651 28.821 27.4273 28.7126 27.621 28.5197L28.521 27.6213C28.714 27.4277 28.8223 27.1654 28.8223 26.892C28.8223 26.6186 28.714 26.3563 28.521 26.1627C28.3634 26.0022 28.2619 25.7951 28.2316 25.5723C28.2013 25.3494 28.2437 25.1228 28.3527 24.926C28.6101 24.4457 28.8194 23.9411 28.9777 23.4197C29.0399 23.2043 29.1699 23.0147 29.3484 22.879C29.527 22.7434 29.7445 22.6689 29.9687 22.6667C30.242 22.6661 30.504 22.5573 30.6973 22.364C30.8906 22.1707 30.9995 21.9087 31 21.6353V20.3647C30.9995 20.0913 30.8906 19.8293 30.6973 19.636C30.504 19.4427 30.242 19.3339 29.9687 19.3333V19.3333Z" stroke="#000E24" stroke-width="1.5" stroke-miterlimit="10" stroke-linecap="round" stroke-linejoin="round"/>
</svg>
