<svg width="24" height="24" viewBox="0 0 24 24" fill="none" xmlns="http://www.w3.org/2000/svg">
<path d="M4.75 7.18421L18.75 7.18421M9.05769 7.18421L9.05769 5.42368C9.05769 5.17871 9.16832 4.94377 9.36523 4.77054C9.56214 4.59732 9.82921 4.5 10.1077 4.5L13.3923 4.5C13.5302 4.5 13.6667 4.52389 13.7941 4.57031C13.9215 4.61673 14.0373 4.68477 14.1348 4.77054C14.2323 4.85631 14.3096 4.95814 14.3624 5.07021C14.4151 5.18227 14.4423 5.30238 14.4423 5.42368L14.4423 7.18421M17.2692 7.18421L16.4885 18.3395C16.4816 18.6454 16.3404 18.937 16.0944 19.1534C15.8485 19.3697 15.517 19.4939 15.1692 19.5L8.33077 19.5C7.98304 19.4939 7.65148 19.3697 7.40555 19.1534C7.15963 18.937 7.01843 18.6454 7.01154 18.3395L6.23077 7.18421" stroke="#000E24" stroke-width="1.2" stroke-miterlimit="10" stroke-linecap="round" stroke-linejoin="round"/>
<path d="M10 10.3333L10 15.3333M13.5 10.3333L13.5 15.3333" stroke="#000E24" stroke-width="1.2" stroke-miterlimit="10" stroke-linecap="round" stroke-linejoin="round"/>
</svg>
