<svg width="42" height="42" viewBox="0 0 42 42" fill="none" xmlns="http://www.w3.org/2000/svg">
<path d="M29.6687 25.9722C29.8434 27.1783 28.9081 28.259 27.6894 28.259H14.3976C13.1494 28.259 12.2062 27.1282 12.43 25.9002L13.8169 18.2933C14.4658 14.7342 17.5663 12.1479 21.1841 12.1479V12.1479C24.9052 12.1479 28.0618 14.8801 28.5953 18.5628L29.6687 25.9722Z" stroke="#000E24" stroke-width="1.5" stroke-miterlimit="10" stroke-linecap="round" stroke-linejoin="round"/>
<path d="M19 12.1479C19 10.9563 19.8981 9.99978 21 9.99978C22.1019 9.99978 23 10.9644 23 12.1479" stroke="#000E24" stroke-width="1.5" stroke-miterlimit="10" stroke-linecap="round" stroke-linejoin="round"/>
<path d="M25 28.2588C25 30.0376 23.4338 31.481 21.5 31.481C19.5662 31.481 18 30.0376 18 28.2588" stroke="#000E24" stroke-width="1.5" stroke-miterlimit="10" stroke-linejoin="round"/>
</svg>
