<svg width="70" height="19" viewBox="0 0 70 19" fill="none" xmlns="http://www.w3.org/2000/svg">
<g clip-path="url(#clip0_374_6281)">
<path d="M0 5.44775C0 2.71425 2.10875 0.77175 5.0925 0.77175C8.07625 0.77175 10.185 2.7125 10.185 5.44775C10.185 8.183 8.07625 10.1447 5.0925 10.1447C2.10875 10.1447 0 8.204 0 5.44775ZM7.5775 5.44775C7.5775 3.9865 6.5555 3.00475 5.09425 3.00475C3.633 3.00475 2.611 3.9865 2.611 5.44775C2.611 6.909 3.63475 7.89075 5.09425 7.89075C6.55375 7.89075 7.5775 6.909 7.5775 5.44775ZM3.423 18.1597C3.23575 18.1597 3.15175 18.0548 3.15175 17.8885V11.9403C3.15175 11.795 3.23575 11.69 3.423 11.69H5.55275C5.74 11.69 5.824 11.795 5.824 11.9403V15.8025H15.4263C15.6135 15.8025 15.6975 15.8865 15.6975 16.0737V17.8903C15.6975 18.0565 15.6135 18.1615 15.4263 18.1615H3.423V18.1597ZM12.901 13.3805C12.7137 13.3805 12.6297 13.2965 12.6297 13.1302V0.27125C12.6297 0.105 12.7137 0 12.901 0H15.0097C15.218 0 15.302 0.105 15.302 0.27125V13.1302C15.302 13.2965 15.218 13.3805 15.0097 13.3805H12.901Z" fill="#0B2A4F"/>
<path d="M21.7366 6.76375C21.1101 8.141 20.0671 9.352 18.7301 10.3337C18.5638 10.4387 18.3748 10.4388 18.2926 10.3127L17.0606 8.9145C16.9556 8.7885 16.9346 8.60125 17.0816 8.49625C19.0643 7.014 20.4206 5.09425 20.4206 2.75625V1.127C20.4206 0.96075 20.5046 0.85575 20.6918 0.85575H22.7796C22.9458 0.85575 23.0298 0.96075 23.0298 1.127V2.7545C23.0298 4.9875 24.2618 6.741 26.0766 8.036C26.2428 8.162 26.2026 8.28625 26.0976 8.43325L25.0336 9.8525C24.9286 9.9995 24.7623 10.0188 24.5961 9.8945C23.4691 9.08075 22.4051 7.99575 21.7366 6.76375ZM34.0723 14.6528C34.0723 16.5935 32.3818 18.536 27.5798 18.536C22.7778 18.536 21.0873 16.5953 21.0873 14.6528C21.0873 12.7102 22.7778 10.7695 27.5798 10.7695C32.3818 10.7695 34.0723 12.7102 34.0723 14.6528ZM31.4211 14.6528C31.4211 13.797 30.5863 13.0042 27.5798 13.0042C24.5733 13.0042 23.7386 13.797 23.7386 14.6528C23.7386 15.5085 24.5733 16.3013 27.5798 16.3013C30.5863 16.3013 31.4211 15.5085 31.4211 14.6528ZM27.2473 9.70725C27.0601 9.70725 26.9761 9.60225 26.9761 9.436V0.4585C26.9761 0.31325 27.0601 0.20825 27.2473 0.20825H29.3141C29.4803 0.20825 29.5643 0.31325 29.5643 0.4585V3.7975H31.2548V0.27125C31.2548 0.105 31.3388 0 31.5051 0H33.6138C33.8011 0 33.8641 0.105 33.8641 0.27125V10.0398C33.8641 10.206 33.8011 10.311 33.6138 10.311H31.5051C31.3388 10.311 31.2548 10.206 31.2548 10.0398V6.1565H29.5643V9.43425C29.5643 9.6005 29.4803 9.7055 29.3141 9.7055H27.2473V9.70725Z" fill="#0B2A4F"/>
<path d="M46.954 1.56625C47.1413 1.56625 47.2253 1.67125 47.2253 1.8165V13.4645C47.2253 13.6308 47.1413 13.7357 46.954 13.7357H38.1043C37.896 13.7357 37.833 13.6308 37.833 13.4645V1.8165C37.833 1.67125 37.896 1.56625 38.1043 1.56625H40.213C40.3793 1.56625 40.4633 1.67125 40.4633 1.8165V5.55275H44.5968V1.8165C44.5968 1.67125 44.6808 1.56625 44.868 1.56625H46.9558H46.954ZM40.4633 11.3558H44.5968V7.91175H40.4633V11.3558ZM52.4648 0C52.673 0 52.757 0.105 52.757 0.27125V18.0985C52.757 18.2647 52.673 18.3487 52.4648 18.3487H50.356C50.1688 18.3487 50.0848 18.2647 50.0848 18.0985V0.27125C50.0848 0.105 50.1688 0 50.356 0H52.4648Z" fill="#0B2A4F"/>
<path d="M65.5742 12.5037L64.3002 13.965C64.1742 14.091 64.029 14.091 63.8627 13.965C62.1092 12.5668 60.732 10.9795 60.0005 9.56025C59.2497 11.1055 57.7675 12.859 55.951 14.2782C55.7847 14.3832 55.6167 14.3832 55.5135 14.2782L54.2395 12.817C54.1135 12.691 54.1135 12.4827 54.2605 12.3795C56.7647 10.3757 58.6232 7.8715 58.6232 4.3855V1.88125C58.6232 1.736 58.6862 1.631 58.8735 1.631H61.0032C61.1695 1.631 61.2535 1.736 61.2535 1.88125V4.3855C61.2535 7.7875 63.2782 10.3757 65.5532 12.0872C65.7002 12.2133 65.6792 12.3795 65.5742 12.5055V12.5037ZM69.7077 0C69.916 0 70 0.105 70 0.27125V18.0985C70 18.2647 69.916 18.3487 69.7077 18.3487H67.599C67.4117 18.3487 67.3277 18.2647 67.3277 18.0985V7.91175H64.05C63.8417 7.91175 63.7577 7.82775 63.7577 7.6405V5.824C63.7577 5.65775 63.8417 5.55275 64.05 5.55275H67.3277V0.27125C67.3277 0.105 67.4117 0 67.599 0H69.7077Z" fill="#0B2A4F"/>
</g>
<defs>
<clipPath id="clip0_374_6281">
<rect width="70" height="18.536" fill="white"/>
</clipPath>
</defs>
</svg>
