<svg width="44" height="44" viewBox="0 0 44 44" fill="none" xmlns="http://www.w3.org/2000/svg">
<rect width="44" height="44" rx="6" fill="#F2F4F7"/>
<path opacity="0.6" d="M22.3058 11.3689C22.1324 11.2113 21.8676 11.2113 21.6942 11.3689L12.87 19.391C12.5625 19.6704 12.7603 20.1819 13.1757 20.1819H30.8243C31.2397 20.1819 31.4375 19.6704 31.13 19.391L22.3058 11.3689Z" fill="#526070"/>
<path opacity="0.8" d="M30.4848 23.2122C30.6456 23.2122 30.7997 23.1484 30.9134 23.0347C31.027 22.9211 31.0909 22.7669 31.0909 22.6062C31.0909 22.4454 31.027 22.2913 30.9134 22.1776C30.7997 22.064 30.6456 22.0001 30.4848 22.0001H27.124C26.9632 22.0001 26.8091 22.064 26.6954 22.1776C26.5817 22.2913 26.5179 22.4454 26.5179 22.6062C26.5179 22.7669 26.5817 22.9211 26.6954 23.0347C26.8091 23.1484 26.9632 23.2122 27.124 23.2122L27.124 27.9092H23.3223L23.3223 23.2122H23.9284C24.0891 23.2122 24.2433 23.1484 24.3569 23.0347C24.4706 22.9211 24.5344 22.7669 24.5344 22.6062C24.5344 22.4454 24.4706 22.2913 24.3569 22.1776C24.2433 22.064 24.0891 22.0001 23.9284 22.0001L20.0716 22.0001C19.9109 22.0001 19.7567 22.064 19.6431 22.1776C19.5294 22.2913 19.4656 22.4454 19.4656 22.6062C19.4656 22.7669 19.5294 22.9211 19.6431 23.0347C19.7567 23.1484 19.9109 23.2122 20.0716 23.2122H20.6777L20.6777 27.9092H16.876L16.876 23.2122C17.0368 23.2122 17.1909 23.1484 17.3046 23.0347C17.4182 22.9211 17.4821 22.7669 17.4821 22.6062C17.4821 22.4454 17.4182 22.2913 17.3046 22.1776C17.1909 22.064 17.0368 22.0001 16.876 22.0001H13.5151C13.3544 22.0001 13.2002 22.064 13.0866 22.1776C12.9729 22.2913 12.9091 22.4454 12.9091 22.6062C12.9091 22.7669 12.9729 22.9211 13.0866 23.0347C13.2002 23.1484 13.3544 23.2122 13.5151 23.2122H14.1212L14.1212 27.9092H13.5151C13.3544 27.9092 13.2002 27.9731 13.0866 28.0867C12.9729 28.2004 12.9091 28.3545 12.9091 28.6668C12.8999 28.979 12.9637 29.1332 13.0774 29.2469C13.191 29.3605 13.3452 29.4244 13.5059 29.4244H30.4756C30.6364 29.4244 30.7905 29.3605 30.9042 29.2469C31.0178 29.1332 31.0817 28.979 31.0909 28.6668C31.0909 28.3545 31.027 28.2004 30.9134 28.0867C30.7997 27.9731 30.6456 27.9092 30.4848 27.9092H29.8788V23.2122H30.4848Z" fill="#526070"/>
<rect x="12.9092" y="31.0911" width="18.1818" height="1.81818" rx="0.909091" fill="#A1ACB9"/>
</svg>
