<svg width="44" height="44" viewBox="0 0 44 44" fill="none" xmlns="http://www.w3.org/2000/svg">
<rect width="44" height="44" rx="6" fill="#F2F4F7"/>
<path opacity="0.8" d="M29.7778 13H14.2222C12.9949 13 12 13.9949 12 15.2222V29.7778C12 31.0051 12.9949 32 14.2222 32H29.7778C31.0051 32 32 31.0051 32 29.7778V15.2222C32 13.9949 31.0051 13 29.7778 13Z" fill="#A1ACB9"/>
<path d="M26 22.1091C26 21.9986 25.9105 21.9091 25.8 21.9091H23.2909C23.1805 21.9091 23.0909 21.8195 23.0909 21.7091V19.2C23.0909 19.0895 23.0014 19 22.8909 19H21.1091C20.9986 19 20.9091 19.0895 20.9091 19.2V21.7091C20.9091 21.8195 20.8195 21.9091 20.7091 21.9091H18.2C18.0895 21.9091 18 21.9986 18 22.1091V23.8909C18 24.0014 18.0895 24.0909 18.2 24.0909H20.7091C20.8195 24.0909 20.9091 24.1805 20.9091 24.2909V26.8C20.9091 26.9105 20.9986 27 21.1091 27H22.8909C23.0014 27 23.0909 26.9105 23.0909 26.8V24.2909C23.0909 24.1805 23.1805 24.0909 23.2909 24.0909H25.8C25.9105 24.0909 26 24.0014 26 23.8909V22.1091Z" fill="#F2F4F7" stroke="#F2F4F7" stroke-width="0.4" stroke-miterlimit="10" stroke-linecap="round" stroke-linejoin="round"/>
<path opacity="0.8" d="M18.5 12H16.5C16.2239 12 16 12.2239 16 12.5V15.5C16 15.7761 16.2239 16 16.5 16H18.5C18.7761 16 19 15.7761 19 15.5V12.5C19 12.2239 18.7761 12 18.5 12Z" fill="#526070"/>
<path opacity="0.8" d="M27.5 12H25.5C25.2239 12 25 12.2239 25 12.5V15.5C25 15.7761 25.2239 16 25.5 16H27.5C27.7761 16 28 15.7761 28 15.5V12.5C28 12.2239 27.7761 12 27.5 12Z" fill="#526070"/>
</svg>
