<svg width="44" height="44" viewBox="0 0 44 44" fill="none" xmlns="http://www.w3.org/2000/svg">
<rect width="44" height="44" rx="6" fill="#F2F4F7"/>
<path d="M19 13H15C13.8954 13 13 13.8954 13 15V19C13 20.1046 13.8954 21 15 21H19C20.1046 21 21 20.1046 21 19V15C21 13.8954 20.1046 13 19 13Z" fill="#A1ACB9"/>
<path d="M29 13H25C23.8954 13 23 13.8954 23 15V19C23 20.1046 23.8954 21 25 21H29C30.1046 21 31 20.1046 31 19V15C31 13.8954 30.1046 13 29 13Z" fill="#A1ACB9"/>
<path d="M19 23H15C13.8954 23 13 23.8954 13 25V29C13 30.1046 13.8954 31 15 31H19C20.1046 31 21 30.1046 21 29V25C21 23.8954 20.1046 23 19 23Z" fill="#526070"/>
<path d="M29 23H25C23.8954 23 23 23.8954 23 25V29C23 30.1046 23.8954 31 25 31H29C30.1046 31 31 30.1046 31 29V25C31 23.8954 30.1046 23 29 23Z" fill="#A1ACB9"/>
</svg>
