<svg width="44" height="44" viewBox="0 0 44 44" fill="none" xmlns="http://www.w3.org/2000/svg">
<rect width="44" height="44" rx="6" fill="#F2F4F7"/>
<rect x="18" y="30" width="16" height="3" rx="1" fill="#526070"/>
<rect x="28" y="30" width="6" height="3" rx="1" fill="#A1ACB9"/>
<rect x="28.3213" y="18.3767" width="2.15385" height="9.69231" rx="0.538462" transform="rotate(45 28.3213 18.3767)" fill="#A1ACB9"/>
<rect x="19.9453" y="10" width="2.15385" height="9.69231" rx="0.538462" transform="rotate(45 19.9453 10)" fill="#A1ACB9"/>
<rect x="21.4688" y="22.184" width="2.15385" height="5.38461" rx="0.538462" transform="rotate(135 21.4688 22.184)" fill="#A1ACB9"/>
<path opacity="0.8" fill-rule="evenodd" clip-rule="evenodd" d="M18.4225 19.138L19.184 19.8995L19.9455 20.661L20.707 21.4225C20.7096 21.4251 20.7121 21.4277 20.7147 21.4302L21.0877 21.8033C21.298 22.0136 21.298 22.3545 21.0877 22.5648L20.7152 22.9373C20.7125 22.94 20.7098 22.9428 20.707 22.9455L22.23 24.4685L27.5603 19.1382L27.5605 19.138L20.707 12.2845L15.3765 17.615L16.8995 19.138L17.2802 18.7573C17.4905 18.547 17.8314 18.547 18.0417 18.7573L18.4148 19.1304C18.4174 19.1329 18.42 19.1355 18.4225 19.138Z" fill="#A1ACB9"/>
<path opacity="0.6" fill-rule="evenodd" clip-rule="evenodd" d="M19.1839 22.9455L16.8994 20.661L11.5689 25.9915C11.1484 26.4121 11.1484 27.0939 11.5689 27.5145L12.3304 28.276C12.751 28.6966 13.4329 28.6966 13.8534 28.276L19.1839 22.9455Z" fill="#A1ACB9"/>
</svg>
