<svg width="44" height="44" viewBox="0 0 44 44" fill="none" xmlns="http://www.w3.org/2000/svg">
<rect width="44" height="44" rx="6" fill="#F2F4F7"/>
<path opacity="0.6" d="M30.5898 26.541L30.5898 30.041C30.5898 30.3172 30.366 30.541 30.0898 30.541L27.0898 30.541C26.8137 30.541 26.5898 30.3172 26.5898 30.041L26.5898 26.541L30.5898 26.541Z" fill="#526070"/>
<path opacity="0.8" d="M27.4869 15.1145C27.9025 14.1448 29.2772 14.1448 29.6928 15.1145L31.5898 19.5409L33.873 24.8682C34.2123 25.66 33.6315 26.5409 32.77 26.5409H28.5898H24.4097C23.5482 26.5409 22.9674 25.66 23.3067 24.8682L25.5898 19.5409L27.4869 15.1145Z" fill="#526070"/>
<rect opacity="0.8" x="20.0938" y="22.2702" width="11.2707" height="6.05104" rx="0.5" transform="rotate(90 20.0938 22.2702)" fill="#A1ACB9"/>
<path d="M16.7106 13.7513C16.8496 13.4437 17.2865 13.4437 17.4255 13.7513L20.3661 20.2554L23.6341 27.4836C23.7515 27.7433 23.5616 28.0375 23.2766 28.0375H17.0681H10.8595C10.5745 28.0375 10.3846 27.7433 10.502 27.4836L13.77 20.2554L16.7106 13.7513Z" fill="#A1ACB9" stroke="#A1ACB9" stroke-width="1.61538" stroke-miterlimit="10"/>
</svg>
