<svg width="44" height="44" viewBox="0 0 44 44" fill="none" xmlns="http://www.w3.org/2000/svg">
<rect width="44" height="44" rx="6" fill="#F2F4F7"/>
<path d="M34.2786 23.075C34.0534 22.8836 33.7156 22.9116 33.5251 23.1375L26.9886 30.8872C26.9449 30.939 26.9115 30.9986 26.8901 31.0629L25.9339 33.9386C25.782 34.3952 26.2645 34.8037 26.6898 34.5786L29.3614 33.165C29.4219 33.133 29.4756 33.0896 29.5197 33.0374L36.0582 25.2853C36.2477 25.0606 36.2198 24.725 35.9959 24.5347L34.2786 23.075Z" fill="#CBD3DC"/>
<path opacity="0.6" d="M34.5551 23.3181C34.2869 23.0902 34.1528 22.9762 34.0032 22.9534C33.9195 22.9406 33.834 22.9479 33.7537 22.9746C33.6101 23.0225 33.4973 23.1575 33.2716 23.4276L33.0226 23.7255C32.7994 23.9925 32.6878 24.1259 32.6657 24.2744C32.6533 24.3574 32.6607 24.4422 32.6873 24.5219C32.7347 24.6642 32.8677 24.7764 33.1337 25.0007L33.5224 25.3286L34.2784 25.9746C34.5463 26.2036 34.6803 26.3181 34.83 26.3414C34.9138 26.3544 34.9994 26.3472 35.0798 26.3205C35.2236 26.2729 35.3368 26.1378 35.5631 25.8676L35.8147 25.5673C36.0383 25.3004 36.1501 25.1669 36.1724 25.0184C36.1849 24.9353 36.1775 24.8505 36.151 24.7708C36.1036 24.6283 35.9705 24.516 35.7044 24.2914L35.1239 23.8015L34.5551 23.3181Z" fill="#A1ACB9"/>
<path opacity="0.8" d="M23.357 12.3245C23.2199 12.1998 23 12.2971 23 12.4824V16.7864C23 16.9043 23.0956 16.9999 23.2135 16.9999H27.9479C28.143 16.9999 28.2358 16.7597 28.0915 16.6285L23.357 12.3245Z" fill="#526070"/>
<path d="M24.8016 29.5184L24.8723 29.3305C24.8992 29.2591 24.9411 29.1943 24.9951 29.1404L25.136 28.9999L28.3621 25.4336C28.4509 25.3355 28.5 25.2079 28.5 25.0756V18.5335C28.5 18.2388 28.2611 17.9999 27.9664 17.9999H22.5336C22.2389 17.9999 22 17.761 22 17.4662V12.5337C22 12.2389 21.7611 12 21.4664 12L13.5337 11.9999C13.2389 11.9999 13 12.2388 13 12.5335V31.4661C13 31.7608 13.2389 31.9997 13.5336 31.9997L23.4707 31.9999C23.6907 31.9999 23.8882 31.8648 23.968 31.6598L24.8016 29.5184Z" fill="#A1ACB9"/>
<path d="M16 21.9999L24 21.9999" stroke="#F2F4F7" stroke-width="1.2" stroke-linecap="round"/>
<path d="M16 25.9999H21" stroke="#F2F4F7" stroke-width="1.2" stroke-linecap="round"/>
</svg>
